<svg height="200px" width="200px" version="1.1" id="Layer_1" xmlns="http://www.w3.org/2000/svg" xmlns:xlink="http://www.w3.org/1999/xlink" viewBox="0 0 512 512" xml:space="preserve" fill="#000000"><g id="SVGRepo_bgCarrier" stroke-width="0"></g><g id="SVGRepo_tracerCarrier" stroke-linecap="round" stroke-linejoin="round"></g><g id="SVGRepo_iconCarrier"> <g> <path style="fill:#F3D55B;" d="M458.191,266.036L245.959,53.803c-10.337-10.337-10.337-27.11,0-37.447l0,0 c10.346-10.346,27.11-10.346,37.455,0l212.233,212.224c10.337,10.346,10.337,27.11,0,37.455 C485.301,276.382,468.537,276.382,458.191,266.036"></path> <g> <path style="fill:#DF4D60;" d="M487.586,220.527c37.429-54.969,31.841-130.454-16.914-179.2 c-48.746-48.755-124.231-54.343-179.2-16.914L487.586,220.527z"></path> <path style="fill:#DF4D60;" d="M254.019,61.864c-37.429,54.969-31.841,130.454,16.914,179.2 c48.746,48.755,124.231,54.343,179.2,16.914L254.019,61.864z"></path> <path style="fill:#DF4D60;" d="M283.414,53.807c-3.452,3.452-9.039,3.452-12.482,0c-3.452-3.452-3.452-9.039,0-12.482 c3.443-3.452,9.031-3.452,12.482,0C286.866,44.768,286.866,50.355,283.414,53.807"></path> <path style="fill:#DF4D60;" d="M320.866,91.259c-3.452,3.452-9.039,3.452-12.482,0c-3.452-3.452-3.452-9.039,0-12.482 c3.443-3.452,9.031-3.452,12.482,0C324.318,82.219,324.318,87.807,320.866,91.259"></path> <path style="fill:#DF4D60;" d="M358.319,128.711c-3.452,3.452-9.039,3.452-12.482,0c-3.452-3.452-3.452-9.039,0-12.482 c3.443-3.452,9.031-3.452,12.482,0C361.77,119.671,361.77,125.259,358.319,128.711"></path> <path style="fill:#DF4D60;" d="M395.771,166.164c-3.452,3.452-9.039,3.452-12.482,0c-3.452-3.452-3.452-9.039,0-12.482 c3.443-3.452,9.031-3.452,12.482,0C399.222,157.124,399.222,162.712,395.771,166.164"></path> <path style="fill:#DF4D60;" d="M433.224,203.616c-3.452,3.452-9.039,3.452-12.482,0c-3.452-3.452-3.452-9.039,0-12.482 c3.443-3.452,9.031-3.452,12.482,0C436.675,194.576,436.675,200.164,433.224,203.616"></path> <path style="fill:#DF4D60;" d="M470.675,241.068c-3.452,3.452-9.039,3.452-12.482,0c-3.452-3.452-3.452-9.039,0-12.482 c3.443-3.452,9.031-3.452,12.482,0C474.127,232.029,474.127,237.617,470.675,241.068"></path> </g> <g> <path style="fill:#F3D55B;" d="M270.93,241.068c-10.178-10.178-18.441-21.53-24.867-33.607c-4.529,2.119-8.836,4.89-12.588,8.642 c-17.231,17.231-17.231,45.18,0,62.42c17.24,17.231,45.188,17.231,62.42,0c3.752-3.752,6.524-8.06,8.642-12.588 C292.461,259.509,281.108,251.247,270.93,241.068"></path> <path style="fill:#F3D55B;" d="M90.415,496.487c-20.683,20.683-54.219,20.683-74.902,0c-20.683-20.683-20.683-54.219,0-74.902 c20.683-20.683,54.219-20.683,74.902,0C111.098,442.268,111.098,475.804,90.415,496.487"></path> </g> <path style="fill:#DF4D60;" d="M90.415,421.583c4.396,4.396,7.662,9.463,10.187,14.777l147.994-147.994 c-5.508-2.145-10.673-5.402-15.122-9.843c-4.44-4.449-7.698-9.613-9.843-15.122L75.637,411.396 C80.952,413.92,86.019,417.187,90.415,421.583"></path> </g> </g></svg>