<svg height="200px" width="200px" version="1.1" id="Layer_1" xmlns="http://www.w3.org/2000/svg" xmlns:xlink="http://www.w3.org/1999/xlink" viewBox="0 0 512.002 512.002" xml:space="preserve" fill="#000000"><g id="SVGRepo_bgCarrier" stroke-width="0"></g><g id="SVGRepo_tracerCarrier" stroke-linecap="round" stroke-linejoin="round"></g><g id="SVGRepo_iconCarrier"> <g> <path style="fill:#ECF0F1;" d="M256.002,198.62c-4.882,0-8.828-3.955-8.828-8.828V83.853c0-24.329,19.8-44.129,44.138-44.129 s44.138,19.8,44.138,44.138v26.483c0,9.737,7.918,17.655,17.655,17.655c9.737,0,17.655-7.918,17.655-17.655v-35.31 c0-4.873,3.946-8.828,8.828-8.828c4.882,0,8.828,3.955,8.828,8.828v35.31c0,19.474-15.837,35.31-35.31,35.31 c-19.474,0-35.31-15.837-35.31-35.31V83.862c0-14.601-11.882-26.483-26.483-26.483s-26.483,11.882-26.483,26.483v105.931 C264.829,194.666,260.883,198.62,256.002,198.62"></path> <polygon style="fill:#BDC3C7;" points="361.933,75.037 397.243,75.037 397.243,22.071 361.933,22.071 "></polygon> <path style="fill:#3a0e7b;" d="M441.358,489.931L441.358,489.931c-12.659,0-24.47-6.321-31.488-16.852l-20.771-31.153 c-13.091-19.641-35.143-31.444-58.756-31.444H181.659c-23.614,0-45.656,11.802-58.756,31.444l-20.762,31.153 c-7.027,10.531-18.838,16.852-31.497,16.852l0,0c-44.412,0-77.798-40.51-69.323-84.1l27.383-140.835 c10.487-53.928,57.715-92.857,112.649-92.857h10.461c10.381,0,20.524,3.072,29.158,8.828s18.776,8.828,29.149,8.828h91.763 c10.372,0,20.515-3.072,29.149-8.828l0,0c8.633-5.756,18.776-8.828,29.158-8.828h10.461c54.934,0,102.162,38.93,112.649,92.857 l27.383,140.835C519.156,449.421,485.77,489.931,441.358,489.931"></path> <g> <polygon style="fill:#8697CB;" points="432.554,260.413 397.243,260.413 397.243,225.103 361.933,225.103 361.933,260.413 326.622,260.413 326.622,295.724 361.933,295.724 361.933,331.034 397.243,331.034 397.243,295.724 432.554,295.724 "></polygon> <path style="fill:#8697CB;" d="M163.312,229.517c0,12.191-9.878,22.069-22.069,22.069c-12.191,0-22.069-9.878-22.069-22.069 c0-12.191,9.878-22.069,22.069-22.069C153.434,207.448,163.312,217.326,163.312,229.517"></path> <path style="fill:#8697CB;" d="M163.312,317.793c0,12.191-9.878,22.069-22.069,22.069c-12.191,0-22.069-9.878-22.069-22.069 c0-12.191,9.878-22.069,22.069-22.069C153.434,295.724,163.312,305.602,163.312,317.793"></path> <path style="fill:#8697CB;" d="M83.864,249.379c12.191,0,22.069,9.878,22.069,22.069c0,12.191-9.878,22.069-22.069,22.069 s-22.069-9.878-22.069-22.069C61.795,259.257,71.673,249.379,83.864,249.379"></path> <path style="fill:#8697CB;" d="M198.622,249.379c12.191,0,22.069,9.878,22.069,22.069c0,12.191-9.878,22.069-22.069,22.069 s-22.069-9.878-22.069-22.069C176.554,259.257,186.432,249.379,198.622,249.379"></path> <path style="fill:#8697CB;" d="M291.312,339.862c0,19.5-15.81,35.31-35.31,35.31s-35.31-15.81-35.31-35.31 c0-19.5,15.81-35.31,35.31-35.31S291.312,320.362,291.312,339.862"></path> <path style="fill:#8697CB;" d="M141.357,172.138h10.461c10.372,0,20.515,3.072,29.149,8.828c6.656,4.431,14.212,7.23,22.069,8.307 v-31.744c0-11.432-9.269-20.701-20.701-20.701h-64.53c-11.432,0-20.701,9.269-20.701,20.701v23.587 C110.805,175.377,125.75,172.138,141.357,172.138"></path> </g> </g> </g></svg>