<svg xmlns="http://www.w3.org/2000/svg" id="Layer_1" data-name="Layer 1" viewBox="0 0 787.1 787.1"><path d="M540.3,146.3c-217.4,0-393.6,176.2-393.6,393.6S322.9,933.4,540.3,933.4,933.8,757.2,933.8,539.9,757.6,146.3,540.3,146.3ZM410.4,383.2H547.9a34.4,34.4,0,0,1,0,68.8H410.4a34.4,34.4,0,0,1,0-68.8Zm0,122.3H547.9a34.4,34.4,0,0,1,0,68.8H410.4a34.4,34.4,0,0,1,0-68.8Zm259.8,191H410.4a34.4,34.4,0,1,1,0-68.7H670.2a34.4,34.4,0,1,1,0,68.7Zm0-244.5a34.4,34.4,0,1,1,34.4-34.4A34.4,34.4,0,0,1,670.2,452Z" transform="translate(-146.7 -146.3)" fill='#ff96aa' fill-rule="evenodd"></path></svg>