<svg height="200px" width="200px" version="1.1" id="Layer_1" xmlns="http://www.w3.org/2000/svg" xmlns:xlink="http://www.w3.org/1999/xlink" viewBox="0 0 508.986 508.986" xml:space="preserve" fill="#000000"><g id="SVGRepo_bgCarrier" stroke-width="0"></g><g id="SVGRepo_tracerCarrier" stroke-linecap="round" stroke-linejoin="round"></g><g id="SVGRepo_iconCarrier"> <g transform="translate(0 -1)"> <g> <path style="fill:#556080;" d="M222.823,431.663c-2.039,0-4.096-0.706-5.756-2.136c-3.699-3.178-4.114-8.757-0.936-12.447 l56.647-65.827c3.178-3.716,8.757-4.114,12.447-0.927c3.699,3.178,4.114,8.748,0.936,12.447l-56.647,65.818 C227.775,430.621,225.294,431.663,222.823,431.663"></path> <path style="fill:#556080;" d="M397.392,431.968c-3.046,0-6.003-1.571-7.636-4.387l-38.471-66.127 c-2.445-4.22-1.024-9.622,3.196-12.067c4.202-2.463,9.613-1.033,12.067,3.187L405.01,418.7c2.454,4.22,1.024,9.622-3.187,12.067 C400.428,431.589,398.901,431.968,397.392,431.968"></path> </g> <path style="fill:#35C3EE;" d="M506.117,266.617l-16.887-57.909c-10.99-37.667-45.515-63.559-84.745-63.559H279.469 c-48.755,0-88.276,39.521-88.276,88.276L88.82,262.547c7.345,2.754,13.877,7.812,18.141,15.122 c9.119,15.642,4.732,35.284-9.428,45.895l93.661,33.448h247.128C485.399,357.011,519.297,311.814,506.117,266.617"></path> <polygon style="fill:#556080;" points="244.159,286.393 350.09,286.393 350.09,189.29 244.159,189.29 "></polygon> <polygon style="fill:#556080;" points="288.297,145.152 323.607,145.152 323.607,39.221 288.297,39.221 "></polygon> <g> <path style="fill:#AAA;" d="M288.297,46.313c-16.102-4.299-41.693-7.097-70.621-7.097c-48.755,0-88.276,7.91-88.276,17.655 c0,9.754,39.521,17.655,88.276,17.655c28.928,0,54.519-2.79,70.621-7.089V46.313z"></path> <path style="fill:#AAA;" d="M394.228,39.218c-28.928,0-54.519,2.798-70.621,7.097v21.116 c16.102,4.299,41.693,7.097,70.621,7.097c48.755,0,88.276-7.901,88.276-17.655S442.983,39.218,394.228,39.218"></path> </g> <g> <path style="fill:#F0C419;" d="M385.4,445.287c0-14.627,11.855-26.483,26.483-26.483s26.483,11.855,26.483,26.483 c0,14.627-11.855,26.483-26.483,26.483S385.4,459.914,385.4,445.287"></path> <path style="fill:#F0C419;" d="M182.366,445.287c0-14.627,11.855-26.483,26.483-26.483c14.627,0,26.483,11.855,26.483,26.483 c0,14.627-11.855,26.483-26.483,26.483C194.221,471.77,182.366,459.914,182.366,445.287"></path> </g> <path style="fill:#BDC3C7;" d="M106.96,277.666c9.825,16.843,4.131,38.471-12.721,48.287c-16.843,9.825-38.462,4.131-48.287-12.712 c-9.825-16.852-4.131-38.471,12.721-48.296C75.516,255.13,97.134,260.823,106.96,277.666"></path> <path style="fill:#556080;" d="M506.117,266.617l-16.887-57.909c-2.013-6.903-4.838-13.4-8.316-19.421h-42.461 c-24.426,0-44.226,19.8-44.226,44.226v17.567c0,18.591,16.922,38.065,35.31,35.31h79.334 C508.863,279.885,508.051,273.264,506.117,266.617"></path> <g> <polygon style="fill:#8697CB;" points="288.297,242.255 305.952,242.255 305.952,189.29 288.297,189.29 "></polygon> <polygon style="fill:#8697CB;" points="244.159,251.083 350.09,251.083 350.09,233.428 244.159,233.428 "></polygon> </g> <g> <path style="fill:#AAA;" d="M58.669,264.95c5.588-3.257,11.688-4.661,17.717-4.661l-38.038-65.245 c-4.917-8.421-15.722-11.264-24.143-6.356l0,0c-8.422,4.917-11.273,15.722-6.365,24.143l38.047,65.245 C48.862,272.824,53.081,268.208,58.669,264.95"></path> <path style="fill:#AAA;" d="M45.952,313.24c-0.185-0.327-0.282-0.671-0.459-1.006L2.6,382.369 c-5.094,8.316-2.472,19.182,5.844,24.276c8.324,5.085,19.191,2.463,24.276-5.853l42.902-70.144 C63.784,330.356,52.361,324.221,45.952,313.24"></path> <path style="fill:#AAA;" d="M191.193,277.587h-84.295c0.018,0.026,0.044,0.053,0.062,0.079 c6.577,11.273,6.065,24.62,0.044,35.204h84.189c9.746-0.327,17.973-7.91,17.646-17.655 C208.504,285.47,200.939,277.251,191.193,277.587"></path> </g> </g> </g></svg>