<svg preserveAspectRatio="xMidYMid meet" data-bbox="0 0.002 466.15 271.334" viewBox="0 0.002 466.15 271.334" xmlns="http://www.w3.org/2000/svg" data-type="color" role="img" aria-label="itworks.svg">
    <g>
        <g>
            <path d="m233 133.88.2-.26" fill="#1d3c34" data-color="1"></path>
            <path d="M362.72 86.16a49.21 49.21 0 0 1 16.6 0v86a49.73 49.73 0 0 1-16.6 0Zm18.95 54.11 15.06-28.94a61.07 61.07 0 0 1 9.3-.7 53.05 53.05 0 0 1 8.71.7l-15.55 28.12 18.12 32.69a57.8 57.8 0 0 1-18 0Z" fill="#1d3c34" data-color="1"></path>
            <path d="M436.15 145.68a23.29 23.29 0 0 1-10.29-5.59q-3.72-3.71-3.71-11.11c0-6 2.12-10.63 6.4-14s10.11-5.06 17.48-5.06a49.85 49.85 0 0 1 9.07.84 57.14 57.14 0 0 1 9.07 2.48 33.26 33.26 0 0 1-1.19 6.35 30.14 30.14 0 0 1-2.24 5.74 46.94 46.94 0 0 0-6.24-2 28.32 28.32 0 0 0-7.16-.87 12.89 12.89 0 0 0-6.24 1.22 4.2 4.2 0 0 0-2.25 3.95 4.14 4.14 0 0 0 1.59 3.65 18.66 18.66 0 0 0 4.54 2l6.69 2a32.74 32.74 0 0 1 6 2.3 16.77 16.77 0 0 1 4.54 3.35 14.08 14.08 0 0 1 2.93 4.95 21.36 21.36 0 0 1 1 7.17 18.45 18.45 0 0 1-1.81 8.11 19 19 0 0 1-5.3 6.53 26.1 26.1 0 0 1-8.41 4.34 36.19 36.19 0 0 1-11.18 1.6c-1.89 0-3.61-.05-5.18-.18a40.67 40.67 0 0 1-4.53-.59c-1.44-.27-2.88-.6-4.29-1s-3.1-1-4.61-1.53a33.29 33.29 0 0 1 1.13-6.42 38.84 38.84 0 0 1 2.29-6.29 48.35 48.35 0 0 0 7.36 2.3 33.52 33.52 0 0 0 7.23.76 25.18 25.18 0 0 0 3.6-.29 14.46 14.46 0 0 0 3.58-1.05 8.69 8.69 0 0 0 2.76-2 5.46 5.46 0 0 0-.57-7.31 16.74 16.74 0 0 0-4.77-2.17Z" fill="#1d3c34" data-color="1"></path>
            <path d="M218.24 32.16C200.54 14.68 175.46 2.73 147.09.41a118.53 118.53 0 0 0-30.56 1.42 192.46 192.46 0 0 1 35.89 10c23.24 1.95 46.41 8.92 65.82 20.33Z" fill="#1d3c34" data-color="1"></path>
            <path d="M111.76 4.9c-34.71-6-68.17 4.63-88.66 32.16-27.8 37.39-23 94.19 8.16 139a156.39 156.39 0 0 1-2.88-50.68C34.28 67.54 69.12 19.65 111.76 4.9Z" fill="#71c692" data-color="2"></path>
            <path d="M101.71 260.52c34.84 17.64 75.83 13.32 110.39-10.16a110.29 110.29 0 0 0 48.11-83.65 110 110 0 0 1-51.79 63.41 84.25 84.25 0 0 1-9.36 5.61c-20 18.49-44.7 29.23-70.4 28.25-10.29-.38-17.92.34-26.95-3.46Z" fill="#1d3c34" data-color="1"></path>
            <path d="M102.78 105.49v-31.7L78.62 94.2h14.75Z" fill="#1d3c34" data-color="1"></path>
            <path d="M4.16 128.86A85.53 85.53 0 0 0 60.85 237.1l-.16-.13a112 112 0 0 1-27.93-45.69A103.06 103.06 0 0 1 30 180c-12.59-15.64-21.47-33.24-25.84-51.14Z" fill="#1d3c34" data-color="1"></path>
            <path d="m233 133.88.2-.26" fill="#1d3c34" data-color="1"></path>
            <path d="M218.24 32.16C200.54 14.68 175.46 2.73 147.09.41a118.53 118.53 0 0 0-30.56 1.42 192.46 192.46 0 0 1 35.89 10c23.24 1.95 46.41 8.92 65.82 20.33Z" fill="#1d3c34" data-color="1"></path>
            <path d="M111.76 4.9c-34.71-6-68.17 4.63-88.66 32.16-27.8 37.39-23 94.19 8.16 139a156.39 156.39 0 0 1-2.88-50.68C34.28 67.54 69.12 19.65 111.76 4.9Z" fill="#71c692" data-color="2"></path>
            <path d="M101.71 260.52c34.84 17.64 75.83 13.32 110.39-10.16a110.29 110.29 0 0 0 48.11-83.65 110 110 0 0 1-51.79 63.41 84.25 84.25 0 0 1-9.36 5.61c-20 18.49-44.7 29.23-70.4 28.25-10.29-.38-17.92.34-26.95-3.46Z" fill="#1d3c34" data-color="1"></path>
            <path d="M207.7 64.45a161.92 161.92 0 0 0-22.89-24.57 152.31 152.31 0 0 0-33.52-22.31 109.26 109.26 0 0 0-66 19.13 110.62 110.62 0 0 0-47.86 83.59A110 110 0 0 1 207.7 64.45Z" fill="#1d3c34" data-color="1"></path>
            <path d="M56.08 190.87a108.73 108.73 0 0 1-18.84-69.3 109.37 109.37 0 0 0-2.31 57.07 161.08 161.08 0 0 0 24.45 26.41c25.38 23.1 47.49 28.26 52.38 28.38-16.41-6.35-43.7-25.05-55.68-42.56Z" fill="#1d3c34" data-color="1"></path>
            <path d="M50.62 219.75a112.3 112.3 0 0 0 41.59 33.74 89.71 89.71 0 0 0 28.9 6.3c25.5 1.29 49.79-8.1 69.36-24.64-37.2 17-89.76 8.32-131.94-25.42a161.47 161.47 0 0 1-24.79-24.66 99.94 99.94 0 0 0 16.88 34.68Z" fill="#71c692" data-color="2"></path>
            <path d="M242 97.52c-1.62-37.81-10.74-70.32-79.93-78.59a160.78 160.78 0 0 1 53.3 47.5A109 109 0 0 1 242 97.52Z" fill="#71c692" data-color="2"></path>
            <path d="M78 117.56a31.36 31.36 0 0 0 .7 6.48h7.89v48.12a48.08 48.08 0 0 0 16.35 0v-60.83H78.65a28.29 28.29 0 0 0-.71 6.24Z" fill="#71c692" data-color="2"></path>
            <path d="M121 124h-7.64l-.6-2.35 22-28.11h2.7v17.75h11.23a30 30 0 0 1 .57 6.13 33.76 33.76 0 0 1-.58 6.58H137.5v23.88a23.54 23.54 0 0 0 .59 5.89 8.57 8.57 0 0 0 1.7 3.51 5.51 5.51 0 0 0 2.77 1.77 13.85 13.85 0 0 0 3.88.48 22.05 22.05 0 0 0 3.47-.29l3-.54a22.09 22.09 0 0 1 1.18 4.64 30.58 30.58 0 0 1 .3 6.48c0 .58-.1 1.14-.19 1.71a47.75 47.75 0 0 1-11.2 1.33q-10.72 0-16.36-5T121 151.57Z" fill="#71c692" data-color="2"></path>
            <path d="M160.05 111.46a32 32 0 0 1 5.12-.71 78 78 0 0 1 8.65 0 25.65 25.65 0 0 1 4.24.58l9.76 44.94 11.31-44.94a42.12 42.12 0 0 1 8-.7c2 .07 3.72.15 5.05.23a24.79 24.79 0 0 1 3.54.47l11.05 44.11 9.66-44.11c1.25-.22 2.51-.4 3.77-.53s2.52-.17 4-.17c1.1 0 2.43 0 3.95.12a34.21 34.21 0 0 1 5.11.71l-18.93 60.7a41.29 41.29 0 0 1-4.54.45c-1.61.08-3 .14-4.05.14s-2.5-.06-3.95-.13a21.81 21.81 0 0 1-4.18-.59l-11.07-40.23-11.42 40.36a45.52 45.52 0 0 1-4.65.45c-1.61.08-2.95.14-4.06.14s-2.38-.06-3.83-.13a21.82 21.82 0 0 1-4.17-.59Z" fill="#1d3c34" data-color="1"></path>
            <path d="M283.39 173.56a31.91 31.91 0 0 1-12.89-2.41 24.35 24.35 0 0 1-9.06-6.71 28.9 28.9 0 0 1-5.4-10.05 41.15 41.15 0 0 1-1.84-12.46 41.77 41.77 0 0 1 1.84-12.6 28.6 28.6 0 0 1 5.4-10.17 24.92 24.92 0 0 1 9.06-6.76 34.67 34.67 0 0 1 25.83 0 25.31 25.31 0 0 1 9.18 6.75 27.47 27.47 0 0 1 5.42 10.17 43.41 43.41 0 0 1 1.77 12.6 42.26 42.26 0 0 1-1.77 12.46 27.66 27.66 0 0 1-5.42 10.05 24.77 24.77 0 0 1-9.18 6.71 32.24 32.24 0 0 1-12.94 2.42Zm0-12.71c4.4 0 7.55-1.62 9.48-4.88s2.87-7.94 2.87-14-1-10.82-2.87-14.06-5.08-4.88-9.48-4.88-7.42 1.62-9.35 4.88-2.9 7.94-2.9 14.06 1 10.79 2.9 14 5.03 4.88 9.35 4.88Z" fill="#1d3c34" data-color="1"></path>
            <path d="M321.16 111.33c1.18-.22 2.31-.41 3.36-.53a34.15 34.15 0 0 1 3.47-.16 23.57 23.57 0 0 1 3.48.23c1.13.16 2.26.35 3.36.59a6.81 6.81 0 0 1 .63 1.7 34.2 34.2 0 0 1 .94 4.82l.31 2.07a30.39 30.39 0 0 1 6.34-6.54 15.13 15.13 0 0 1 9.42-2.87c.78 0 1.69 0 2.7.11a11.85 11.85 0 0 1 2.25.34 25.82 25.82 0 0 1 .36 2.72c.07 1 .12 2.08.12 3.17 0 1.33-.08 2.78-.19 4.36a32.13 32.13 0 0 1-.64 4.46 16.6 16.6 0 0 0-2.9-.23h-1.93a26.88 26.88 0 0 0-4.48.42 10.63 10.63 0 0 0-4.71 2.16 13.12 13.12 0 0 0-3.7 5.3 26.43 26.43 0 0 0-1.47 9.87v28.94a35.77 35.77 0 0 1-4.23.47 74.22 74.22 0 0 1-8.17 0 41.62 41.62 0 0 1-4.32-.46Z" fill="#1d3c34" data-color="1"></path>
            <path d="M362.72 86.16a49.21 49.21 0 0 1 16.6 0v86a49.21 49.21 0 0 1-16.6 0Zm18.95 54.11 15.06-28.94a61 61 0 0 1 9.29-.7 53.09 53.09 0 0 1 8.72.7l-15.55 28.12 18.12 32.69a57.2 57.2 0 0 1-18 0Z" fill="#1d3c34" data-color="1"></path>
            <path d="M436.15 145.68a23.29 23.29 0 0 1-10.29-5.59q-3.72-3.71-3.71-11.11c0-5.95 2.12-10.63 6.4-14s10.11-5.08 17.47-5.08a49.88 49.88 0 0 1 9.08.84 57.14 57.14 0 0 1 9.07 2.48 32.62 32.62 0 0 1-1.19 6.35 30.14 30.14 0 0 1-2.24 5.74 47.38 47.38 0 0 0-6.24-2 27.87 27.87 0 0 0-7.16-.88 13 13 0 0 0-6.24 1.22 4.21 4.21 0 0 0-2.25 3.95 4.14 4.14 0 0 0 1.59 3.65 19 19 0 0 0 4.54 2l6.69 2a32.73 32.73 0 0 1 6 2.29 16.77 16.77 0 0 1 4.54 3.35 14.17 14.17 0 0 1 2.93 4.95 21.36 21.36 0 0 1 1 7.17 18.45 18.45 0 0 1-1.81 8.11 19 19 0 0 1-5.3 6.54 26.3 26.3 0 0 1-8.41 4.34 36.5 36.5 0 0 1-11.18 1.59c-1.89 0-3.62-.05-5.18-.18a38.18 38.18 0 0 1-4.53-.59c-1.44-.27-2.88-.6-4.29-1s-3.1-1-4.61-1.53a34.13 34.13 0 0 1 1.13-6.42 39.09 39.09 0 0 1 2.29-6.29 48.35 48.35 0 0 0 7.36 2.3 33.52 33.52 0 0 0 7.23.76 25.18 25.18 0 0 0 3.6-.29 13.28 13.28 0 0 0 3.58-1.05 8.69 8.69 0 0 0 2.76-2 5.46 5.46 0 0 0-.57-7.31 16.74 16.74 0 0 0-4.77-2.17Z" fill="#1d3c34" data-color="1"></path>
            <path d="M102.78 105.49v-31.7l-24.17 20.4h14.75Z" fill="#1d3c34" data-color="1"></path>
        </g>
    </g>
</svg>