<svg height="200px" width="200px" version="1.1" id="Layer_1" xmlns="http://www.w3.org/2000/svg" xmlns:xlink="http://www.w3.org/1999/xlink" viewBox="0 0 512 512" xml:space="preserve" fill="#000000"><g id="SVGRepo_bgCarrier" stroke-width="0"></g><g id="SVGRepo_tracerCarrier" stroke-linecap="round" stroke-linejoin="round"></g><g id="SVGRepo_iconCarrier"> <g> <polygon style="fill:#70e2d2;" points="0,494.345 141.241,494.345 141.241,406.069 0,406.069 "></polygon> <g> <polygon style="fill:#ff4d4d;" points="17.655,229.517 52.966,229.517 52.966,194.207 17.655,194.207 "></polygon> <polygon style="fill:#ff4d4d;" points="88.276,229.517 123.586,229.517 123.586,194.207 88.276,194.207 "></polygon> <polygon style="fill:#ff4d4d;" points="158.897,229.517 194.207,229.517 194.207,194.207 158.897,194.207 "></polygon> <polygon style="fill:#ff4d4d;" points="229.517,229.517 264.828,229.517 264.828,194.207 229.517,194.207 "></polygon> </g> <polygon style="fill:#3a0e7b;" points="0,406.069 141.241,406.069 141.241,317.793 0,317.793 "></polygon> <path style="fill:#F0C419;" d="M282.483,317.79H0V247.17c0-9.755,7.901-17.655,17.655-17.655h247.172 c9.754,0,17.655,7.901,17.655,17.655V317.79z"></path> <g> <polygon style="fill:#F49853;" points="247.172,52.966 282.483,52.966 282.483,17.655 247.172,17.655 "></polygon> <polygon style="fill:#F49853;" points="317.793,52.966 353.103,52.966 353.103,17.655 317.793,17.655 "></polygon> <polygon style="fill:#F49853;" points="388.414,52.966 423.724,52.966 423.724,17.655 388.414,17.655 "></polygon> <polygon style="fill:#F49853;" points="459.034,52.966 494.345,52.966 494.345,17.655 459.034,17.655 "></polygon> </g> <path style="fill:#70e2d2;" d="M512,141.239H229.517V70.618c0-9.754,7.901-17.655,17.655-17.655h247.172 c9.754,0,17.655,7.901,17.655,17.655V141.239z"></path> <polygon style="fill:#F0C419;" points="370.759,317.793 512,317.793 512,229.517 370.759,229.517 "></polygon> <polygon style="fill:#70e2d2;" points="370.759,406.069 512,406.069 512,317.793 370.759,317.793 "></polygon> <polygon style="fill:#DF4D60;" points="370.759,494.345 512,494.345 512,406.069 370.759,406.069 "></polygon> <polygon style="fill:#3a0e7b;" points="370.759,229.517 512,229.517 512,141.241 370.759,141.241 "></polygon> </g> </g></svg>