<svg height="200px" width="200px" version="1.1" id="Layer_1" xmlns="http://www.w3.org/2000/svg" xmlns:xlink="http://www.w3.org/1999/xlink" viewBox="0 0 511.996 511.996" xml:space="preserve" fill="#000000"><g id="SVGRepo_bgCarrier" stroke-width="0"></g><g id="SVGRepo_tracerCarrier" stroke-linecap="round" stroke-linejoin="round"></g><g id="SVGRepo_iconCarrier"> <g transform="translate(0 1)"> <path style="fill:#ff4d4d;" d="M88.276,263.826v-17.655H44.138v17.655H21.336C9.551,263.826,0,275.584,0,287.369v153.009 c0,11.785,5.87,17.655,17.655,17.655h26.483v-17.655h44.138v17.655h79.448v-17.655h44.138v17.655h26.483 c11.785,0,17.655-5.87,17.655-17.655V281.481c0-11.785-5.87-17.655-17.655-17.655H88.276z"></path> <path style="fill:#3a0e7b;" d="M277.333,263.826c-11.785,0-21.336,5.87-21.336,17.655v158.897c0,11.785,5.879,17.655,17.655,17.655 h26.483v-17.655h44.138v17.655h79.448v-17.655h44.138v17.655h22.81c11.776,0,21.327-9.551,21.327-21.336V287.369 c0-11.785-9.551-23.543-21.327-23.543h-22.81v-17.655h-44.138v17.655H277.333z"></path> <polygon style="fill:#70e2d2;" points="132.414,69.619 132.414,263.826 379.586,263.826 379.586,69.619 344.276,69.619 344.276,51.964 300.138,51.964 300.138,69.619 211.862,69.619 211.862,51.964 167.724,51.964 167.724,69.619 150.069,69.619 "></polygon> <g> <path style="fill:#bf2222;" d="M26.483,378.584c4.882,0,8.828-3.955,8.828-8.828c0-4.873-3.946-8.828-8.828-8.828H0v17.655H26.483 z"></path> <path style="fill:#bf2222;" d="M44.138,413.895c4.882,0,8.828-3.955,8.828-8.828s-3.946-8.828-8.828-8.828H0v17.655H44.138z"></path> </g> </g> </g></svg>