<svg height="200px" width="200px" version="1.1" id="Layer_1" xmlns="http://www.w3.org/2000/svg" xmlns:xlink="http://www.w3.org/1999/xlink" viewBox="0 0 512.001 512.001" xml:space="preserve" fill="#000000"><g id="SVGRepo_bgCarrier" stroke-width="0"></g><g id="SVGRepo_tracerCarrier" stroke-linecap="round" stroke-linejoin="round"></g><g id="SVGRepo_iconCarrier"> <g> <g> <path style="fill:#196a6b;" d="M503.323,334.102h-17.356c-4.799,0-8.678-3.888-8.678-8.678c0-4.79,3.879-8.678,8.678-8.678h17.356 c4.799,0,8.678,3.888,8.678,8.678C512.001,330.214,508.122,334.102,503.323,334.102"></path> <path style="fill:#196a6b;" d="M503.323,368.814h-17.356c-4.799,0-8.678-3.888-8.678-8.678c0-4.79,3.879-8.678,8.678-8.678h17.356 c4.799,0,8.678,3.888,8.678,8.678C512.001,364.926,508.122,368.814,503.323,368.814"></path> <path style="fill:#196a6b;" d="M503.323,403.526h-17.356c-4.799,0-8.678-3.888-8.678-8.678c0-4.79,3.879-8.678,8.678-8.678h17.356 c4.799,0,8.678,3.888,8.678,8.678C512.001,399.638,508.122,403.526,503.323,403.526"></path> </g> <path style="fill:#70e2d2;" d="M279.439,438.238c-2.117-10.44-2.386-21.547-0.356-32.985c6.682-37.619,38.547-66.959,76.566-70.717 c51.894-5.12,95.605,35.51,95.605,86.346c0,5.944-0.607,11.75-1.744,17.356h19.118c9.572,0,17.339-7.767,17.339-17.339V229.967 V39.051H277.695v190.915H69.424C31.084,229.967,0,261.051,0,299.39v69.424c0,38.339,31.084,69.424,69.424,69.424h18.05 c4.217-29.427,29.462-52.068,60.052-52.068c30.598,0,55.834,22.641,60.06,52.068"></path> <path style="fill:#F0C419;" d="M407.865,221.289h-52.068c-19.17,0-34.712-15.542-34.712-34.712v-69.424 c0-19.17,15.542-34.712,34.712-34.712h52.068c19.17,0,34.712,15.542,34.712,34.712v69.424 C442.577,205.746,427.035,221.289,407.865,221.289"></path> <path style="fill:#ff4d4d;" d="M364.475,117.153c0,4.79-3.888,8.678-8.678,8.678s-8.678-3.888-8.678-8.678s3.888-8.678,8.678-8.678 S364.475,112.363,364.475,117.153"></path> <polygon style="fill:#196a6b;" points="485.967,39.051 277.696,39.051 260.34,4.339 503.323,4.339 "></polygon> <g> <path style="fill:#F0C419;" d="M451.255,420.882c0,47.928-38.851,86.78-86.78,86.78s-86.78-38.851-86.78-86.78 c0-47.928,38.851-86.78,86.78-86.78S451.255,372.953,451.255,420.882"></path> <path style="fill:#F0C419;" d="M208.272,446.916c0,33.549-27.197,60.746-60.746,60.746s-60.746-27.197-60.746-60.746 c0-33.549,27.197-60.746,60.746-60.746S208.272,413.367,208.272,446.916"></path> </g> <g> <path style="fill:#ff4d4d;" d="M390.509,420.882c0,14.379-11.654,26.034-26.034,26.034c-14.379,0-26.034-11.654-26.034-26.034 c0-14.379,11.654-26.034,26.034-26.034C378.855,394.848,390.509,406.502,390.509,420.882"></path> <path style="fill:#ff4d4d;" d="M173.56,446.916c0,14.379-11.655,26.034-26.034,26.034c-14.379,0-26.034-11.655-26.034-26.034 c0-14.379,11.655-26.034,26.034-26.034C161.906,420.882,173.56,432.536,173.56,446.916"></path> <path style="fill:#ff4d4d;" d="M173.547,455.594c-4.191,0-7.888-3.046-8.556-7.324c-0.746-4.738,2.482-9.181,7.22-9.928 l164.881-26.034c4.729-0.738,9.173,2.482,9.919,7.22c0.746,4.738-2.482,9.181-7.22,9.928L174.91,455.49 C174.45,455.559,173.998,455.594,173.547,455.594"></path> </g> <g> <path style="fill:#196a6b;" d="M86.781,299.39h-43.39c-4.79,0-8.678-3.888-8.678-8.678c0-4.79,3.888-8.678,8.678-8.678h43.39 c4.79,0,8.678,3.888,8.678,8.678C95.458,295.503,91.571,299.39,86.781,299.39"></path> <path style="fill:#196a6b;" d="M86.781,342.78h-43.39c-4.79,0-8.678-3.888-8.678-8.678c0-4.79,3.888-8.678,8.678-8.678h43.39 c4.79,0,8.678,3.888,8.678,8.678C95.458,338.892,91.571,342.78,86.781,342.78"></path> <path style="fill:#196a6b;" d="M86.781,386.17h-43.39c-4.79,0-8.678-3.888-8.678-8.678c0-4.79,3.888-8.678,8.678-8.678h43.39 c4.79,0,8.678,3.888,8.678,8.678C95.458,382.282,91.571,386.17,86.781,386.17"></path> </g> <polygon style="fill:#F0C419;" points="86.781,229.969 121.492,229.969 121.492,125.834 86.781,125.834 "></polygon> <polygon style="fill:#ff4d4d;" points="130.17,125.831 78.103,125.831 69.425,91.119 138.848,91.119 "></polygon> <path style="fill:#196a6b;" d="M182.238,325.424h-34.712v-34.712h34.712c9.589,0,17.356,7.767,17.356,17.356 C199.594,317.657,191.827,325.424,182.238,325.424"></path> <g> <path style="fill:#ff4d4d;" d="M381.831,143.187c-2.222,0-4.443-0.85-6.135-2.543c-3.393-3.393-3.393-8.878,0-12.271 l17.356-17.356c3.393-3.393,8.878-3.393,12.271,0c3.393,3.393,3.393,8.878,0,12.271l-17.356,17.356 C386.275,142.336,384.053,143.187,381.831,143.187"></path> <path style="fill:#ff4d4d;" d="M355.797,169.221c-2.222,0-4.443-0.85-6.135-2.543c-3.393-3.393-3.393-8.878,0-12.271l8.678-8.678 c3.393-3.393,8.878-3.393,12.271,0c3.393,3.393,3.393,8.878,0,12.271l-8.678,8.678 C360.241,168.37,358.019,169.221,355.797,169.221"></path> </g> </g> </g></svg>