<svg fill="#000000" width="256px" height="256px" viewBox="0 0 32.00 32.00" style="fill-rule:evenodd;clip-rule:evenodd;stroke-linejoin:round;stroke-miterlimit:2;" version="1.1" xml:space="preserve" xmlns="http://www.w3.org/2000/svg" xmlns:serif="http://www.serif.com/" xmlns:xlink="http://www.w3.org/1999/xlink" stroke="#000000" stroke-width="0.00032"><g id="SVGRepo_bgCarrier" stroke-width="0"></g><g id="SVGRepo_tracerCarrier" stroke-linecap="round" stroke-linejoin="round"></g><g id="SVGRepo_iconCarrier"> <g transform="matrix(1,0,0,1,-432,-432)"> <path d="M448,459C448,459.53 448.211,460.039 448.586,460.414C448.961,460.789 449.47,461 450,461L459,461C459.53,461 460.039,460.789 460.414,460.414C460.789,460.039 461,459.53 461,459L461,450C461,449.47 460.789,448.961 460.414,448.586C460.039,448.211 459.53,448 459,448L450,448C449.47,448 448.961,448.211 448.586,448.586C448.211,448.961 448,449.47 448,450C448,449.47 447.789,448.961 447.414,448.586C447.039,448.211 446.53,448 446,448L437,448C436.47,448 435.961,448.211 435.586,448.586C435.211,448.961 435,449.47 435,450L435,459C435,459.53 435.211,460.039 435.586,460.414C435.961,460.789 436.47,461 437,461L446,461C446.53,461 447.039,460.789 447.414,460.414C447.789,460.039 448,459.53 448,459ZM454,448C454.53,448 455.039,447.789 455.414,447.414C455.789,447.039 456,446.53 456,446L456,437C456,436.47 455.789,435.961 455.414,435.586C455.039,435.211 454.53,435 454,435L445,435C444.47,435 443.961,435.211 443.586,435.586C443.211,435.961 443,436.47 443,437L443,446C443,446.53 443.211,447.039 443.586,447.414C443.961,447.789 444.47,448 445,448L454,448Z" style="fill:#70e2d2;"></path> <path d="M442.172,447L437,447C436.204,447 435.441,447.316 434.879,447.879C434.316,448.441 434,449.204 434,450L434,459C434,459.796 434.316,460.559 434.879,461.121C435.441,461.684 436.204,462 437,462L446,462C446.74,462 447.452,461.727 448,461.236C448.548,461.727 449.26,462 450,462L459,462C459.796,462 460.559,461.684 461.121,461.121C461.684,460.559 462,459.796 462,459L462,450C462,449.204 461.684,448.441 461.121,447.879C460.559,447.316 459.796,447 459,447L456.828,447C456.941,446.682 457,446.344 457,446L457,437C457,436.204 456.684,435.441 456.121,434.879C455.559,434.316 454.796,434 454,434L445,434C444.204,434 443.441,434.316 442.879,434.879C442.316,435.441 442,436.204 442,437L442,446C442,446.344 442.059,446.682 442.172,447ZM450,449L459,449C459.265,449 459.52,449.105 459.707,449.293C459.895,449.48 460,449.735 460,450L460,459C460,459.265 459.895,459.52 459.707,459.707C459.52,459.895 459.265,460 459,460L450,460C449.735,460 449.48,459.895 449.293,459.707C449.105,459.52 449,459.265 449,459L449,450C449,449.735 449.105,449.48 449.293,449.293C449.48,449.105 449.735,449 450,449ZM446,449L437,449C436.735,449 436.48,449.105 436.293,449.293C436.105,449.48 436,449.735 436,450L436,459C436,459.265 436.105,459.52 436.293,459.707C436.48,459.895 436.735,460 437,460L446,460C446.265,460 446.52,459.895 446.707,459.707C446.895,459.52 447,459.265 447,459L447,450C447,449.735 446.895,449.48 446.707,449.293C446.52,449.105 446.265,449 446,449ZM454,447L445,447C444.735,447 444.48,446.895 444.293,446.707C444.105,446.52 444,446.265 444,446L444,437C444,436.735 444.105,436.48 444.293,436.293C444.48,436.105 444.735,436 445,436L454,436C454.265,436 454.52,436.105 454.707,436.293C454.895,436.48 455,436.735 455,437L455,446C455,446.265 454.895,446.52 454.707,446.707C454.52,446.895 454.265,447 454,447Z" style="fill:#3a0e7b;"></path> <path d="M458,453C458,452.47 457.789,451.961 457.414,451.586C457.039,451.211 456.53,451 456,451C455.129,451 453.871,451 453,451C452.47,451 451.961,451.211 451.586,451.586C451.211,451.961 451,452.47 451,453C451,453.871 451,455.129 451,456C451,456.53 451.211,457.039 451.586,457.414C451.961,457.789 452.47,458 453,458C453.871,458 455.129,458 456,458C456.53,458 457.039,457.789 457.414,457.414C457.789,457.039 458,456.53 458,456L458,453ZM456,453L456,456L453,456L453,453L456,453Z" style="fill:#3a0e7b;"></path> <path d="M441.5,451C439.568,451 438,452.568 438,454.5C438,456.432 439.568,458 441.5,458C443.432,458 445,456.432 445,454.5C445,452.568 443.432,451 441.5,451ZM441.5,453C442.328,453 443,453.672 443,454.5C443,455.328 442.328,456 441.5,456C440.672,456 440,455.328 440,454.5C440,453.672 440.672,453 441.5,453Z" style="fill:#3a0e7b;"></path> <path d="M452.987,441.992L451.228,438.977C450.869,438.362 450.211,437.985 449.5,437.985C448.789,437.985 448.131,438.362 447.772,438.977L446.013,441.992C445.653,442.611 445.65,443.375 446.007,443.996C446.363,444.617 447.025,445 447.741,445C448.814,445 450.186,445 451.259,445C451.975,445 452.637,444.617 452.993,443.996C453.35,443.375 453.347,442.611 452.987,441.992ZM451.259,443L449.5,439.985L447.741,443C447.741,443 451.259,443 451.259,443Z" style="fill:#3a0e7b;"></path> </g> </g></svg>